<svg width="30" height="32" viewBox="0 0 30 32" fill="none" xmlns="http://www.w3.org/2000/svg">
<path d="M9.92578 12.6875C10.6348 12.6875 11.2793 12.75 11.8652 12.8875C12.4453 13.0187 12.9434 13.2375 13.3652 13.5437C13.7813 13.8437 14.1035 14.25 14.332 14.75C14.5605 15.25 14.6719 15.875 14.6719 16.6125C14.6719 17.4125 14.502 18.075 14.1621 18.6125C13.8223 19.1437 13.3184 19.5813 12.6445 19.9188C13.5586 20.2 14.2383 20.6937 14.6836 21.3937C15.1348 22.1 15.3574 22.9438 15.3574 23.9375C15.3574 24.7437 15.2109 25.4313 14.9238 26.0125C14.6309 26.6 14.2383 27.0813 13.7461 27.45C13.2539 27.8188 12.6914 28.0938 12.0586 28.275C11.4316 28.45 10.7812 28.5438 10.1191 28.5438H2.92383V12.6875H9.92578ZM9.50391 19.0875C10.084 19.0875 10.5645 18.9437 10.9453 18.6437C11.3203 18.35 11.502 17.8688 11.502 17.2C11.502 16.8313 11.4434 16.525 11.3203 16.2875C11.1914 16.05 11.0273 15.8688 10.8164 15.7375C10.6055 15.6 10.3711 15.5125 10.0957 15.4563C9.82617 15.4 9.54492 15.375 9.25195 15.375H6.19336V19.0812H9.50391V19.0875ZM9.68555 25.8375C10.0078 25.8375 10.3125 25.8062 10.6055 25.7375C10.8984 25.6687 11.1562 25.5625 11.3789 25.4C11.5957 25.2437 11.7773 25.0375 11.9121 24.7687C12.0469 24.5 12.1055 24.1562 12.1055 23.7437C12.1055 22.925 11.8887 22.35 11.4609 21.9937C11.0332 21.6437 10.459 21.475 9.75586 21.475H6.19922V25.8375H9.68555Z" fill="white"/>
<path d="M20.0273 25.7813C20.4727 26.2438 21.1113 26.475 21.9375 26.475C22.5352 26.475 23.0508 26.3125 23.4785 25.9938C23.9062 25.675 24.1699 25.3313 24.2695 24.975H26.8711C26.4551 26.3563 25.8164 27.3438 24.9551 27.9375C24.0996 28.5313 23.0566 28.8313 21.8379 28.8313C20.9883 28.8313 20.2266 28.6875 19.541 28.3938C18.8555 28.1 18.2871 27.6938 17.8066 27.1625C17.3379 26.625 16.9746 25.9938 16.7168 25.25C16.459 24.5125 16.3301 23.6938 16.3301 22.8063C16.3301 21.95 16.4648 21.1438 16.7285 20.4063C16.998 19.6625 17.3672 19.0188 17.8535 18.4813C18.3398 17.9375 18.9199 17.5125 19.5996 17.2C20.2734 16.8875 21.0176 16.7313 21.8437 16.7313C22.7519 16.7313 23.5488 16.9188 24.2344 17.3C24.9141 17.675 25.4707 18.1813 25.9101 18.8188C26.3496 19.4563 26.6601 20.1813 26.8535 20.9938C27.0469 21.8063 27.1172 22.6563 27.0586 23.55H19.2949C19.2949 24.4625 19.582 25.325 20.0273 25.7813ZM23.4199 19.7563C23.0684 19.3438 22.4766 19.1188 21.75 19.1188C21.2754 19.1188 20.8887 19.2063 20.5723 19.375C20.2676 19.5438 20.0156 19.7563 19.8223 20.0063C19.6289 20.2625 19.5 20.5313 19.4238 20.8125C19.3477 21.0938 19.3008 21.3438 19.2891 21.5688H24.0996C24.0351 20.7688 23.7773 20.175 23.4199 19.7563Z" fill="white"/>
<path d="M24.7148 13.75H18.6914V15.3125H24.7148V13.75Z" fill="white"/>
</svg>
