<svg width="30" height="30" viewBox="0 0 30 30" fill="none" xmlns="http://www.w3.org/2000/svg">
<path d="M8.75 11.25H3.75V25H8.75V11.25Z" fill="white"/>
<path d="M6.25 8.75C7.63071 8.75 8.75 7.63071 8.75 6.25C8.75 4.86929 7.63071 3.75 6.25 3.75C4.86929 3.75 3.75 4.86929 3.75 6.25C3.75 7.63071 4.86929 8.75 6.25 8.75Z" fill="white"/>
<path d="M20.625 10.3125C19.7824 10.3148 18.9513 10.5075 18.1937 10.8762C17.4361 11.2449 16.7717 11.7801 16.25 12.4418V11.25H11.25V25H16.25V16.25C16.25 15.587 16.5134 14.9511 16.9822 14.4822C17.4511 14.0134 18.087 13.75 18.75 13.75C19.413 13.75 20.0489 14.0134 20.5178 14.4822C20.9866 14.9511 21.25 15.587 21.25 16.25V25H26.25V15.9375C26.25 14.4457 25.6574 13.0149 24.6025 11.96C23.5476 10.9051 22.1168 10.3125 20.625 10.3125Z" fill="white"/>
</svg>
