<svg width="23" height="23" viewBox="0 0 23 23" fill="none" xmlns="http://www.w3.org/2000/svg">
<path d="M11.528 0.984009C13.704 0.984009 15.648 1.43201 17.36 2.32801C19.072 3.22401 20.4 4.47201 21.344 6.07201C22.304 7.67201 22.784 9.48001 22.784 11.496C22.784 13.576 22.376 15.208 21.56 16.392C20.744 17.56 19.616 18.144 18.176 18.144C17.408 18.144 16.76 17.968 16.232 17.616C15.704 17.248 15.336 16.728 15.128 16.056C14.168 17.448 12.728 18.144 10.808 18.144C9.72003 18.144 8.73603 17.888 7.85603 17.376C6.97603 16.848 6.28803 16.12 5.79203 15.192C5.29603 14.264 5.04803 13.208 5.04803 12.024C5.04803 10.856 5.29603 9.81601 5.79203 8.90401C6.28803 7.97601 6.97603 7.25601 7.85603 6.74401C8.73603 6.21601 9.72003 5.95201 10.808 5.95201C11.656 5.95201 12.416 6.09601 13.088 6.38401C13.776 6.67201 14.352 7.09601 14.816 7.65601V6.09601H17.48V14.256C17.48 14.832 17.592 15.248 17.816 15.504C18.056 15.76 18.36 15.888 18.728 15.888C19.384 15.888 19.88 15.52 20.216 14.784C20.568 14.032 20.744 12.952 20.744 11.544C20.744 9.84801 20.352 8.35201 19.568 7.05601C18.8 5.76001 17.72 4.75201 16.328 4.03201C14.936 3.31201 13.336 2.95201 11.528 2.95201C9.70403 2.95201 8.08803 3.33601 6.68003 4.10401C5.27203 4.85601 4.18403 5.91201 3.41603 7.27201C2.64803 8.63201 2.26403 10.176 2.26403 11.904C2.26403 13.664 2.64003 15.224 3.39203 16.584C4.16003 17.944 5.24003 19 6.63203 19.752C8.02403 20.52 9.62403 20.904 11.432 20.904C12.216 20.904 13.008 20.816 13.808 20.64C14.624 20.464 15.384 20.2 16.088 19.848L16.736 21.768C16.032 22.136 15.2 22.416 14.24 22.608C13.296 22.8 12.36 22.896 11.432 22.896C9.19203 22.896 7.20803 22.424 5.48003 21.48C3.76803 20.536 2.43203 19.232 1.47203 17.568C0.52803 15.904 0.0560303 14.016 0.0560303 11.904C0.0560303 9.82401 0.53603 7.96001 1.49603 6.31201C2.45603 4.64801 3.80003 3.34401 5.52803 2.40001C7.27203 1.45601 9.27203 0.984009 11.528 0.984009ZM11.312 15.816C12.352 15.816 13.2 15.48 13.856 14.808C14.528 14.12 14.864 13.192 14.864 12.024C14.864 10.872 14.528 9.96001 13.856 9.28801C13.2 8.61601 12.352 8.28001 11.312 8.28001C10.256 8.28001 9.40003 8.62401 8.74403 9.31201C8.08803 9.98401 7.76003 10.888 7.76003 12.024C7.76003 13.176 8.08803 14.096 8.74403 14.784C9.40003 15.472 10.256 15.816 11.312 15.816Z" fill="white"/>
</svg>
