<svg width="186" height="15" viewBox="0 0 186 15" fill="none" xmlns="http://www.w3.org/2000/svg">
<rect x="112" y="8" width="7" height="3" fill="#D74007"/>
<rect x="119" y="8" width="6" height="3" fill="#186BAF"/>
<path d="M7.10609 14.204C5.89342 14.204 4.79409 13.9433 3.80809 13.422C2.83342 12.8893 2.06275 12.1583 1.49609 11.229C0.940753 10.2883 0.663086 9.22867 0.663086 8.05C0.663086 6.87134 0.940753 5.81734 1.49609 4.888C2.06275 3.94734 2.83342 3.21634 3.80809 2.695C4.79409 2.16234 5.89909 1.896 7.12309 1.896C8.15442 1.896 9.08375 2.07734 9.91109 2.44C10.7498 2.80267 11.4524 3.324 12.0191 4.004L10.2511 5.636C9.44642 4.70667 8.44909 4.242 7.25909 4.242C6.52242 4.242 5.86509 4.40634 5.28709 4.735C4.70909 5.05234 4.25575 5.5 3.92709 6.078C3.60975 6.656 3.45109 7.31334 3.45109 8.05C3.45109 8.78667 3.60975 9.444 3.92709 10.022C4.25575 10.6 4.70909 11.0533 5.28709 11.382C5.86509 11.6993 6.52242 11.858 7.25909 11.858C8.44909 11.858 9.44642 11.3877 10.2511 10.447L12.0191 12.079C11.4524 12.7703 10.7498 13.2973 9.91109 13.66C9.07242 14.0227 8.13742 14.204 7.10609 14.204Z" fill="white"/>
<path d="M17.3145 4.718C18.7311 4.718 19.8191 5.058 20.5785 5.738C21.3378 6.40667 21.7175 7.421 21.7175 8.781V14H19.2355V12.861C18.7368 13.711 17.8075 14.136 16.4475 14.136C15.7448 14.136 15.1328 14.017 14.6115 13.779C14.1015 13.541 13.7105 13.2123 13.4385 12.793C13.1665 12.3737 13.0305 11.8977 13.0305 11.365C13.0305 10.515 13.3478 9.84634 13.9825 9.359C14.6285 8.87167 15.6201 8.628 16.9575 8.628H19.0655C19.0655 8.05 18.8898 7.608 18.5385 7.302C18.1871 6.98467 17.6601 6.826 16.9575 6.826C16.4701 6.826 15.9885 6.90534 15.5125 7.064C15.0478 7.21134 14.6511 7.41534 14.3225 7.676L13.3705 5.823C13.8691 5.47167 14.4641 5.19967 15.1555 5.007C15.8581 4.81434 16.5778 4.718 17.3145 4.718ZM17.1105 12.351C17.5638 12.351 17.9661 12.249 18.3175 12.045C18.6688 11.8297 18.9181 11.518 19.0655 11.11V10.175H17.2465C16.1585 10.175 15.6145 10.532 15.6145 11.246C15.6145 11.586 15.7448 11.858 16.0055 12.062C16.2775 12.2547 16.6458 12.351 17.1105 12.351Z" fill="white"/>
<path d="M35.8306 4.718C36.9753 4.718 37.882 5.058 38.5506 5.738C39.2306 6.40667 39.5706 7.41534 39.5706 8.764V14H36.9186V9.172C36.9186 8.44667 36.7656 7.90834 36.4596 7.557C36.165 7.19434 35.74 7.013 35.1846 7.013C34.5613 7.013 34.0683 7.217 33.7056 7.625C33.343 8.02167 33.1616 8.61667 33.1616 9.41V14H30.5096V9.172C30.5096 7.73267 29.9316 7.013 28.7756 7.013C28.1636 7.013 27.6763 7.217 27.3136 7.625C26.951 8.02167 26.7696 8.61667 26.7696 9.41V14H24.1176V4.854H26.6506V5.908C26.9906 5.52267 27.4043 5.228 27.8916 5.024C28.3903 4.82 28.9343 4.718 29.5236 4.718C30.1696 4.718 30.7533 4.84834 31.2746 5.109C31.796 5.35834 32.2153 5.72667 32.5326 6.214C32.9066 5.738 33.377 5.36967 33.9436 5.109C34.5216 4.84834 35.1506 4.718 35.8306 4.718Z" fill="white"/>
<path d="M41.9477 4.854H44.5997V14H41.9477V4.854ZM43.2737 3.579C42.7864 3.579 42.3897 3.43734 42.0837 3.154C41.7777 2.87067 41.6247 2.51934 41.6247 2.1C41.6247 1.68067 41.7777 1.32934 42.0837 1.046C42.3897 0.762669 42.7864 0.621002 43.2737 0.621002C43.7611 0.621002 44.1577 0.757003 44.4637 1.029C44.7697 1.301 44.9227 1.641 44.9227 2.049C44.9227 2.491 44.7697 2.85934 44.4637 3.154C44.1577 3.43734 43.7611 3.579 43.2737 3.579Z" fill="white"/>
<path d="M47.061 1.386H49.713V14H47.061V1.386Z" fill="white"/>
<path d="M52.1743 1.386H54.8263V14H52.1743V1.386Z" fill="white"/>
<path d="M66.2466 9.461C66.2466 9.495 66.2296 9.733 66.1956 10.175H59.2766C59.4012 10.7417 59.6959 11.1893 60.1606 11.518C60.6252 11.8467 61.2032 12.011 61.8946 12.011C62.3706 12.011 62.7899 11.943 63.1526 11.807C63.5266 11.6597 63.8722 11.433 64.1896 11.127L65.6006 12.657C64.7392 13.643 63.4812 14.136 61.8266 14.136C60.7952 14.136 59.8829 13.9377 59.0896 13.541C58.2962 13.133 57.6842 12.572 57.2536 11.858C56.8229 11.144 56.6076 10.3337 56.6076 9.427C56.6076 8.53167 56.8172 7.727 57.2366 7.013C57.6672 6.28767 58.2509 5.72667 58.9876 5.33C59.7356 4.922 60.5686 4.718 61.4866 4.718C62.3819 4.718 63.1922 4.91067 63.9176 5.296C64.6429 5.68134 65.2096 6.23667 65.6176 6.962C66.0369 7.676 66.2466 8.509 66.2466 9.461ZM61.5036 6.724C60.9029 6.724 60.3986 6.894 59.9906 7.234C59.5826 7.574 59.3332 8.03867 59.2426 8.628H63.7476C63.6569 8.05 63.4076 7.591 62.9996 7.251C62.5916 6.89967 62.0929 6.724 61.5036 6.724Z" fill="white"/>
<path d="M73.0136 2.1H78.4196C79.7116 2.1 80.8506 2.34934 81.8366 2.848C82.834 3.33534 83.6046 4.02667 84.1486 4.922C84.704 5.81734 84.9816 6.86 84.9816 8.05C84.9816 9.24 84.704 10.2827 84.1486 11.178C83.6046 12.0733 82.834 12.7703 81.8366 13.269C80.8506 13.7563 79.7116 14 78.4196 14H73.0136V2.1ZM78.2836 11.739C79.4736 11.739 80.42 11.4103 81.1226 10.753C81.8366 10.0843 82.1936 9.18334 82.1936 8.05C82.1936 6.91667 81.8366 6.02134 81.1226 5.364C80.42 4.69534 79.4736 4.361 78.2836 4.361H75.7676V11.739H78.2836Z" fill="white"/>
<path d="M86.8715 4.854H89.5235V14H86.8715V4.854ZM88.1975 3.579C87.7102 3.579 87.3135 3.43734 87.0075 3.154C86.7015 2.87067 86.5485 2.51934 86.5485 2.1C86.5485 1.68067 86.7015 1.32934 87.0075 1.046C87.3135 0.762669 87.7102 0.621002 88.1975 0.621002C88.6849 0.621002 89.0815 0.757003 89.3875 1.029C89.6935 1.301 89.8465 1.641 89.8465 2.049C89.8465 2.491 89.6935 2.85934 89.3875 3.154C89.0815 3.43734 88.6849 3.579 88.1975 3.579Z" fill="white"/>
<path d="M96.3368 14.136C95.3735 14.136 94.5065 13.9377 93.7358 13.541C92.9765 13.133 92.3815 12.572 91.9508 11.858C91.5202 11.144 91.3048 10.3337 91.3048 9.427C91.3048 8.52034 91.5202 7.71 91.9508 6.996C92.3815 6.282 92.9765 5.72667 93.7358 5.33C94.5065 4.922 95.3735 4.718 96.3368 4.718C97.3002 4.718 98.1615 4.922 98.9208 5.33C99.6802 5.72667 100.275 6.282 100.706 6.996C101.136 7.71 101.352 8.52034 101.352 9.427C101.352 10.3337 101.136 11.144 100.706 11.858C100.275 12.572 99.6802 13.133 98.9208 13.541C98.1615 13.9377 97.3002 14.136 96.3368 14.136ZM96.3368 11.96C97.0168 11.96 97.5722 11.7333 98.0028 11.28C98.4448 10.8153 98.6658 10.1977 98.6658 9.427C98.6658 8.65634 98.4448 8.04434 98.0028 7.591C97.5722 7.12634 97.0168 6.894 96.3368 6.894C95.6568 6.894 95.0958 7.12634 94.6538 7.591C94.2118 8.04434 93.9908 8.65634 93.9908 9.427C93.9908 10.1977 94.2118 10.8153 94.6538 11.28C95.0958 11.7333 95.6568 11.96 96.3368 11.96Z" fill="white"/>
<path d="M108.683 4.718C109.817 4.718 110.729 5.058 111.42 5.738C112.123 6.418 112.474 7.42667 112.474 8.764V14H109.822V9.172C109.822 8.44667 109.664 7.90834 109.346 7.557C109.029 7.19434 108.57 7.013 107.969 7.013C107.301 7.013 106.768 7.22267 106.371 7.642C105.975 8.05 105.776 8.662 105.776 9.478V14H103.124V4.854H105.657V5.925C106.009 5.53967 106.445 5.245 106.966 5.041C107.488 4.82567 108.06 4.718 108.683 4.718Z" fill="white"/>
<path d="M133.432 7.812C134.112 8.02734 134.645 8.39 135.03 8.9C135.416 9.39867 135.608 10.0163 135.608 10.753C135.608 11.7957 135.2 12.6003 134.384 13.167C133.58 13.7223 132.401 14 130.848 14H124.694V2.1H130.508C131.959 2.1 133.07 2.37767 133.84 2.933C134.622 3.48834 135.013 4.242 135.013 5.194C135.013 5.772 134.872 6.28767 134.588 6.741C134.316 7.19434 133.931 7.55134 133.432 7.812ZM127.431 4.174V6.979H130.168C130.848 6.979 131.364 6.86 131.715 6.622C132.067 6.384 132.242 6.03267 132.242 5.568C132.242 5.10334 132.067 4.75767 131.715 4.531C131.364 4.293 130.848 4.174 130.168 4.174H127.431ZM130.644 11.926C131.37 11.926 131.914 11.807 132.276 11.569C132.65 11.331 132.837 10.9627 132.837 10.464C132.837 9.478 132.106 8.985 130.644 8.985H127.431V11.926H130.644Z" fill="white"/>
<path d="M141.858 14.136C140.895 14.136 140.028 13.9377 139.257 13.541C138.498 13.133 137.903 12.572 137.472 11.858C137.042 11.144 136.826 10.3337 136.826 9.427C136.826 8.52034 137.042 7.71 137.472 6.996C137.903 6.282 138.498 5.72667 139.257 5.33C140.028 4.922 140.895 4.718 141.858 4.718C142.822 4.718 143.683 4.922 144.442 5.33C145.202 5.72667 145.797 6.282 146.227 6.996C146.658 7.71 146.873 8.52034 146.873 9.427C146.873 10.3337 146.658 11.144 146.227 11.858C145.797 12.572 145.202 13.133 144.442 13.541C143.683 13.9377 142.822 14.136 141.858 14.136ZM141.858 11.96C142.538 11.96 143.094 11.7333 143.524 11.28C143.966 10.8153 144.187 10.1977 144.187 9.427C144.187 8.65634 143.966 8.04434 143.524 7.591C143.094 7.12634 142.538 6.894 141.858 6.894C141.178 6.894 140.617 7.12634 140.175 7.591C139.733 8.04434 139.512 8.65634 139.512 9.427C139.512 10.1977 139.733 10.8153 140.175 11.28C140.617 11.7333 141.178 11.96 141.858 11.96Z" fill="white"/>
<path d="M148.646 1.386H151.298V14H148.646V1.386Z" fill="white"/>
<path d="M163.075 1.386V14H160.542V12.946C159.885 13.7393 158.933 14.136 157.686 14.136C156.825 14.136 156.043 13.9433 155.34 13.558C154.649 13.1727 154.105 12.623 153.708 11.909C153.312 11.195 153.113 10.3677 153.113 9.427C153.113 8.48634 153.312 7.659 153.708 6.945C154.105 6.231 154.649 5.68134 155.34 5.296C156.043 4.91067 156.825 4.718 157.686 4.718C158.854 4.718 159.766 5.08634 160.423 5.823V1.386H163.075ZM158.145 11.96C158.814 11.96 159.369 11.7333 159.811 11.28C160.253 10.8153 160.474 10.1977 160.474 9.427C160.474 8.65634 160.253 8.04434 159.811 7.591C159.369 7.12634 158.814 6.894 158.145 6.894C157.465 6.894 156.904 7.12634 156.462 7.591C156.02 8.04434 155.799 8.65634 155.799 9.427C155.799 10.1977 156.02 10.8153 156.462 11.28C156.904 11.7333 157.465 11.96 158.145 11.96Z" fill="white"/>
<path d="M174.744 4.854V14H172.228V12.912C171.876 13.3087 171.457 13.6147 170.97 13.83C170.482 14.034 169.955 14.136 169.389 14.136C168.187 14.136 167.235 13.7903 166.533 13.099C165.83 12.4077 165.479 11.382 165.479 10.022V4.854H168.131V9.631C168.131 11.1043 168.748 11.841 169.984 11.841C170.618 11.841 171.128 11.637 171.514 11.229C171.899 10.8097 172.092 10.192 172.092 9.376V4.854H174.744Z" fill="white"/>
<path d="M181.621 14.136C180.646 14.136 179.768 13.9377 178.986 13.541C178.215 13.133 177.609 12.572 177.167 11.858C176.736 11.144 176.521 10.3337 176.521 9.427C176.521 8.52034 176.736 7.71 177.167 6.996C177.609 6.282 178.215 5.72667 178.986 5.33C179.768 4.922 180.646 4.718 181.621 4.718C182.584 4.718 183.423 4.922 184.137 5.33C184.862 5.72667 185.389 6.299 185.718 7.047L183.661 8.152C183.185 7.31334 182.499 6.894 181.604 6.894C180.912 6.894 180.34 7.12067 179.887 7.574C179.433 8.02734 179.207 8.645 179.207 9.427C179.207 10.209 179.433 10.8267 179.887 11.28C180.34 11.7333 180.912 11.96 181.604 11.96C182.51 11.96 183.196 11.5407 183.661 10.702L185.718 11.824C185.389 12.5493 184.862 13.116 184.137 13.524C183.423 13.932 182.584 14.136 181.621 14.136Z" fill="white"/>
</svg>
